<svg width="205" height="52" viewBox="0 0 205 52" fill="none" xmlns="http://www.w3.org/2000/svg">
<g clip-path="url(#clip0_15004_561)">
<path d="M0.30127 28.524C0.30127 22.4164 5.37702 17.4652 11.6383 17.4652C17.8996 17.4652 22.9753 22.4164 22.9753 28.524V34.6678C22.9753 37.3823 20.7194 39.5829 17.9367 39.5829H11.6383C5.37702 39.5829 0.30127 34.6317 0.30127 28.524Z" fill="#3C096C"/>
<path d="M25.8082 16.9715V13.7792C25.8082 10.7254 28.3461 8.24982 31.4767 8.24982C34.6074 8.24982 37.1454 10.7254 37.1454 13.7792V14.5237C37.1454 15.9863 38.1027 17.2856 39.5239 17.7518L41.1342 18.2802C45.5249 19.7207 48.4822 23.7348 48.4822 28.2533V28.5911C48.4822 34.6618 43.4374 39.5832 37.2136 39.5832H30.8469C28.0641 39.5832 25.8082 37.3826 25.8082 34.6681V16.9715Z" fill="#240046"/>
<path d="M46.7373 12.2377C46.3519 12.2377 46.0018 12.1518 45.6863 11.9801C45.3779 11.8015 45.1327 11.561 44.9507 11.2588C44.7754 10.9565 44.688 10.6164 44.688 10.2386C44.688 9.86077 44.779 9.52415 44.961 9.22875C45.1434 8.92648 45.3886 8.68948 45.697 8.51774C46.005 8.33912 46.3519 8.24982 46.7373 8.24982C47.1224 8.24982 47.4694 8.33912 47.7777 8.51774C48.0861 8.68948 48.3277 8.92648 48.503 9.22875C48.685 9.52415 48.776 9.86077 48.776 10.2386C48.776 10.6164 48.685 10.9565 48.503 11.2588C48.3277 11.561 48.0861 11.8015 47.7777 11.9801C47.4765 12.1518 47.1296 12.2377 46.7373 12.2377ZM46.7373 11.9492C47.0664 11.9492 47.3609 11.877 47.62 11.7328C47.8862 11.5816 48.0929 11.3755 48.2403 11.1145C48.3941 10.8534 48.4712 10.5615 48.4712 10.2386C48.4712 9.91573 48.3941 9.6272 48.2403 9.37302C48.0929 9.11197 47.8862 8.90931 47.62 8.76505C47.3609 8.61391 47.0664 8.53835 46.7373 8.53835C46.4079 8.53835 46.1103 8.61391 45.844 8.76505C45.5845 8.90931 45.3779 9.11197 45.2237 9.37302C45.0767 9.6272 45.0031 9.91573 45.0031 10.2386C45.0031 10.5615 45.0767 10.8534 45.2237 11.1145C45.3779 11.3755 45.5845 11.5816 45.844 11.7328C46.1103 11.877 46.4079 11.9492 46.7373 11.9492ZM46.3062 11.3309H45.9807V9.1051H46.8002C47.0454 9.1051 47.2417 9.16693 47.3887 9.29058C47.5361 9.40737 47.6096 9.57224 47.6096 9.7852C47.6096 9.92946 47.5711 10.0566 47.494 10.1665C47.4169 10.2764 47.2977 10.3588 47.1367 10.4138L47.6517 11.3309H47.2838L46.8212 10.4859H46.3062V11.3309ZM47.2627 9.79551C47.2627 9.53446 47.105 9.40393 46.7898 9.40393H46.3062V10.1871H46.7898C46.9369 10.1871 47.0525 10.1562 47.1367 10.0943C47.2206 10.0256 47.2627 9.92603 47.2627 9.79551Z" fill="white"/>
</g>
<path d="M63.625 37.7719V10H68.3252V21.6873H81.6257V10H86.3063V37.7719H81.6257V26.0459H68.3252V37.7719H63.625ZM99.6729 38.3697C98.1129 38.3697 96.8252 38.1126 95.8113 37.5983C94.7974 37.084 93.9911 36.4283 93.3931 35.6311C92.7951 34.8339 92.3529 33.9853 92.067 33.0853C91.7805 32.1853 91.5924 31.3367 91.5014 30.5396C91.4232 29.7296 91.3841 29.0739 91.3841 28.5724V16.9429H96.143V26.9717C96.143 27.6145 96.1882 28.341 96.2792 29.151C96.3702 29.9481 96.5785 30.7196 96.9034 31.4653C97.2419 32.1982 97.7353 32.8025 98.3859 33.2782C99.0486 33.7539 99.9392 33.9918 101.058 33.9918C101.656 33.9918 102.247 33.8953 102.833 33.7025C103.417 33.5097 103.944 33.1818 104.412 32.7189C104.893 32.2432 105.276 31.5939 105.563 30.771C105.849 29.9481 105.992 28.9067 105.992 27.6467L108.781 28.8231C108.781 30.5975 108.429 32.2046 107.728 33.6447C107.039 35.0847 106.018 36.2354 104.666 37.0969C103.313 37.9454 101.649 38.3697 99.6729 38.3697ZM106.557 37.7719V31.311H105.992V16.9429H110.712V37.7719H106.557ZM124.636 38.3504C122.698 38.3504 121.008 37.8683 119.565 36.904C118.122 35.9397 117.003 34.6282 116.21 32.9696C115.417 31.311 115.021 29.4403 115.021 27.3574C115.021 25.2488 115.417 23.3716 116.21 21.7259C117.016 20.0673 118.154 18.7623 119.623 17.8108C121.092 16.8465 122.821 16.3643 124.811 16.3643C126.813 16.3643 128.49 16.8465 129.843 17.8108C131.208 18.7623 132.241 20.0673 132.944 21.7259C133.646 23.3845 133.997 25.2617 133.997 27.3574C133.997 29.4274 133.646 31.2982 132.944 32.9696C132.241 34.6282 131.195 35.9397 129.804 36.904C128.412 37.8683 126.69 38.3504 124.636 38.3504ZM125.357 34.1847C126.618 34.1847 127.632 33.9018 128.399 33.3361C129.179 32.7575 129.745 31.9539 130.096 30.9253C130.46 29.8967 130.642 28.7074 130.642 27.3574C130.642 25.9945 130.46 24.8052 130.096 23.7895C129.745 22.7609 129.193 21.9637 128.438 21.398C127.684 20.8194 126.709 20.5301 125.513 20.5301C124.252 20.5301 123.212 20.8387 122.393 21.4559C121.574 22.0602 120.969 22.8831 120.579 23.9245C120.189 24.9531 119.994 26.0974 119.994 27.3574C119.994 28.6303 120.182 29.7875 120.56 30.8289C120.949 31.8575 121.541 32.6739 122.334 33.2782C123.127 33.8825 124.135 34.1847 125.357 34.1847ZM130.642 37.7719V23.1531H130.057V10H134.796V37.7719H130.642ZM148.397 38.3504C145.797 38.3504 143.684 37.7719 142.058 36.6147C140.434 35.4575 139.445 33.8311 139.094 31.7353L143.892 31.0025C144.139 32.0311 144.685 32.8411 145.53 33.4325C146.375 34.0239 147.442 34.3197 148.729 34.3197C149.86 34.3197 150.731 34.1011 151.342 33.6639C151.966 33.2139 152.278 32.6032 152.278 31.8317C152.278 31.356 152.161 30.9767 151.927 30.6939C151.706 30.3981 151.212 30.1153 150.445 29.8453C149.678 29.5753 148.501 29.2346 146.915 28.8231C145.147 28.3603 143.743 27.8653 142.702 27.3381C141.662 26.7981 140.914 26.1617 140.459 25.4288C140.004 24.6959 139.777 23.8088 139.777 22.7673C139.777 21.4687 140.122 20.3373 140.811 19.373C141.5 18.4087 142.462 17.6694 143.697 17.1551C144.932 16.6279 146.389 16.3643 148.065 16.3643C149.703 16.3643 151.154 16.6151 152.415 17.1165C153.689 17.6179 154.716 18.3315 155.496 19.2573C156.276 20.183 156.757 21.2695 156.939 22.5166L152.142 23.3652C152.025 22.478 151.615 21.7773 150.913 21.263C150.224 20.7487 149.301 20.4594 148.143 20.3951C147.038 20.3309 146.148 20.498 145.472 20.8966C144.796 21.2823 144.458 21.8287 144.458 22.5359C144.458 22.9345 144.594 23.2752 144.867 23.5581C145.14 23.8409 145.686 24.1238 146.505 24.4067C147.337 24.6895 148.573 25.0367 150.211 25.4481C151.888 25.8724 153.227 26.3609 154.228 26.9138C155.242 27.4538 155.97 28.1031 156.413 28.8617C156.868 29.6203 157.096 30.5396 157.096 31.6196C157.096 33.7153 156.322 35.3611 154.774 36.5568C153.24 37.7525 151.114 38.3504 148.397 38.3504ZM170.67 38.3504C168.564 38.3504 166.724 37.8811 165.15 36.9425C163.578 36.0039 162.355 34.7118 161.484 33.0661C160.626 31.4075 160.197 29.5046 160.197 27.3574C160.197 25.1717 160.639 23.2559 161.523 21.6101C162.407 19.9644 163.636 18.6787 165.209 17.7529C166.783 16.8272 168.603 16.3643 170.67 16.3643C172.789 16.3643 174.635 16.8337 176.209 17.7723C177.782 18.7108 179.004 20.0094 179.875 21.668C180.746 23.3137 181.182 25.2102 181.182 27.3574C181.182 29.5174 180.74 31.4267 179.856 33.0853C178.985 34.7311 177.763 36.0233 176.189 36.9619C174.616 37.8876 172.776 38.3504 170.67 38.3504ZM170.67 33.9918C172.542 33.9918 173.933 33.3747 174.843 32.1403C175.754 30.906 176.209 29.3117 176.209 27.3574C176.209 25.3388 175.747 23.7316 174.824 22.5359C173.901 21.3273 172.516 20.723 170.67 20.723C169.408 20.723 168.368 21.0059 167.549 21.5716C166.743 22.1245 166.145 22.9023 165.755 23.9052C165.365 24.8952 165.17 26.0459 165.17 27.3574C165.17 29.376 165.632 30.9896 166.555 32.1982C167.491 33.3939 168.862 33.9918 170.67 33.9918ZM200.047 37.7719V27.7431C200.047 27.0874 200.002 26.3609 199.911 25.5638C199.82 24.7667 199.605 24.0016 199.267 23.2687C198.942 22.523 198.448 21.9123 197.785 21.4366C197.135 20.9609 196.251 20.723 195.133 20.723C194.534 20.723 193.943 20.8194 193.358 21.0123C192.773 21.2051 192.239 21.5395 191.759 22.0151C191.291 22.478 190.913 23.1209 190.627 23.9438C190.342 24.7538 190.199 25.7952 190.199 27.0681L187.41 25.8917C187.41 24.1173 187.754 22.5102 188.443 21.0701C189.145 19.6301 190.172 18.4858 191.525 17.6373C192.877 16.7758 194.541 16.3451 196.518 16.3451C198.078 16.3451 199.365 16.6022 200.379 17.1165C201.393 17.6308 202.199 18.2865 202.797 19.0837C203.395 19.8809 203.838 20.7294 204.123 21.6295C204.409 22.5295 204.591 23.3845 204.669 24.1945C204.761 24.9917 204.806 25.6409 204.806 26.1424V37.7719H200.047ZM185.44 37.7719V16.9429H189.633V23.4037H190.199V37.7719H185.44Z" fill="#10002B"/>
<defs>
<clipPath id="clip0_15004_561">
<rect width="48.5393" height="31.3333" fill="white" transform="translate(0.30127 8.24982)"/>
</clipPath>
</defs>
</svg>
